<?xml version="1.0" encoding="UTF-8"?>
<svg version="1.1" xmlns="http://www.w3.org/2000/svg" width="512" height="512">
<path d="M0 0 C0.98562471 -0.00623996 1.97124942 -0.01247993 2.98674154 -0.01890898 C6.26309801 -0.03476203 9.53870254 -0.02226462 12.81506348 -0.00964355 C15.17467175 -0.01506807 17.53427662 -0.02219257 19.89387512 -0.03088379 C26.28433133 -0.04908063 32.6745285 -0.04206444 39.06498909 -0.02936745 C43.06024008 -0.02331386 47.05545407 -0.02360304 51.05070496 -0.02732849 C51.71532489 -0.02794142 52.37994482 -0.02855436 53.06470475 -0.02918586 C54.41514911 -0.03046485 55.76559346 -0.0317617 57.11603779 -0.03307623 C69.75934052 -0.04446419 82.40252698 -0.03139642 95.04581064 -0.00987476 C105.87862108 0.00799464 116.71126003 0.00489003 127.54406738 -0.0135498 C140.14418371 -0.03498815 152.74419829 -0.04336572 165.34433031 -0.03110075 C166.68962127 -0.02982664 168.03491225 -0.02856916 169.38020325 -0.02732849 C170.04199682 -0.02671139 170.7037904 -0.02609429 171.38563833 -0.02545848 C176.03431415 -0.02201445 180.6829225 -0.02801042 185.33158875 -0.0372467 C191.59603283 -0.04882452 197.86015392 -0.04074366 204.12456322 -0.01766968 C206.41987256 -0.01239298 208.71520921 -0.01387848 211.01050758 -0.02272034 C214.15100471 -0.03370016 217.2904759 -0.01988199 220.4309082 0 C221.33267713 -0.00892289 222.23444606 -0.01784577 223.16354132 -0.02703905 C230.61800486 0.06409271 237.17130175 2.00775459 243.3013916 6.33215332 C243.89178223 6.94703613 244.48217285 7.56191895 245.0904541 8.19543457 C245.69631348 8.79742676 246.30217285 9.39941895 246.9263916 10.01965332 C251.88211152 16.91221574 253.30393742 23.33028106 253.19647217 31.70155334 C253.19988987 32.68929573 253.20330757 33.67703812 253.20682883 34.6947121 C253.21338455 37.98374692 253.19146933 41.27195424 253.16955566 44.56091309 C253.16842669 46.92674236 253.16906202 49.29257303 253.17132568 51.65840149 C253.1724718 58.06687843 253.14897862 64.47505497 253.12102985 70.88346219 C253.09661795 76.90640992 253.0945343 82.92939128 253.09042236 88.95237934 C253.0816819 100.87696009 253.05510039 112.80143099 253.01721191 124.72595215 C252.98045938 136.30504815 252.95216353 147.88411424 252.93518066 159.46325684 C252.93412977 160.17777126 252.93307888 160.89228569 252.93199614 161.62845207 C252.92677574 165.21319327 252.92172097 168.79793469 252.91674852 172.38267624 C252.87532543 202.09116848 252.80461247 231.79954629 252.7154541 261.50793457 C253.72307454 261.80494137 253.72307454 261.80494137 254.75105095 262.1079483 C255.64018747 262.37195183 256.529324 262.63595535 257.44540405 262.90795898 C258.32340101 263.16783852 259.20139797 263.42771805 260.1060009 263.69547272 C263.95266438 264.89314407 267.67448911 266.34996475 271.4107666 267.85168457 C272.22016693 268.17295822 273.02956726 268.49423187 273.86349487 268.82524109 C276.52403708 269.88227463 279.18222091 270.94510925 281.8404541 272.00793457 C283.73546589 272.7620253 285.63065209 273.51567784 287.52600098 274.2689209 C291.53027493 275.86069168 295.53374461 277.45446321 299.53674316 279.04943848 C306.70479439 281.90376016 313.87983108 284.74031736 321.05574036 287.57481384 C326.12946499 289.57913871 331.20210195 291.58610041 336.27185059 293.60046387 C344.7641199 296.97378159 353.25643399 300.34343588 361.78585815 303.62193298 C365.06760055 304.88480653 368.34444796 306.16007416 371.62072754 307.43704224 C373.12104312 308.01777655 374.62376817 308.59233081 376.12902832 309.16012573 C378.17861138 309.93358906 380.21888517 310.72796203 382.25842285 311.52746582 C383.39303955 311.96163818 384.52765625 312.39581055 385.69665527 312.84313965 C389.8975102 315.15981007 392.54553726 318.16810088 394.7154541 322.50793457 C395.21676225 327.53745242 395.26035355 332.06395104 393.4654541 336.82043457 C387.26853335 342.87651621 378.57446737 345.64848511 370.6529541 348.88293457 C370.00995361 349.14590332 369.36695313 349.40887207 368.70446777 349.67980957 C365.87503649 350.79909543 363.78883361 351.50793457 360.7154541 351.50793457 C360.74163818 352.69346924 360.76782227 353.87900391 360.7947998 355.10046387 C360.88544431 359.50782323 360.94275498 363.91510057 360.9901123 368.32312012 C361.01522409 370.22918564 361.04932055 372.13515516 361.09265137 374.04089355 C361.15345155 376.78405455 361.18169655 379.52594043 361.20373535 382.26965332 C361.24244499 383.54337044 361.24244499 383.54337044 361.28193665 384.84281921 C361.28399279 389.200893 361.12389648 390.96952343 358.40759277 394.5501709 C355.7154541 396.50793457 355.7154541 396.50793457 352.1529541 397.07043457 C348.23443699 396.42922268 347.08987184 395.61294238 344.7154541 392.50793457 C343.2390305 389.55508737 343.49272472 386.82344474 343.39904785 383.53137207 C343.37826675 382.84612457 343.35748566 382.16087708 343.33607483 381.4548645 C343.27065226 379.26432388 343.21172856 377.07366268 343.1529541 374.88293457 C343.10976192 373.39854707 343.0661474 371.91417179 343.02209473 370.42980957 C342.91418272 366.78930639 342.8150563 363.14871262 342.7154541 359.50793457 C334.3004541 362.97293457 334.3004541 362.97293457 325.7154541 366.50793457 C325.70143555 368.89096802 325.70143555 368.89096802 325.68713379 371.32214355 C325.64711797 377.24332219 325.58132574 383.16398762 325.50793457 389.08483887 C325.4797923 391.64238875 325.45854442 394.20002451 325.44445801 396.75769043 C325.42293597 400.44441484 325.37623475 404.13011391 325.3248291 407.81652832 C325.32360046 408.95126083 325.32237183 410.08599335 325.32110596 411.25511169 C325.187215 418.59138557 324.3352307 425.30857967 319.38145447 431.05552673 C315.9023145 434.20407837 311.89622558 435.97395377 307.5279541 437.50793457 C306.83435791 437.75720703 306.14076172 438.00647949 305.42614746 438.26330566 C256.84687115 455.26145974 204.69005819 453.77855954 155.7779541 439.13293457 C154.88431152 438.87737793 153.99066895 438.62182129 153.06994629 438.35852051 C146.79932697 436.37794861 142.10541075 433.45749453 137.7154541 428.50793457 C137.0554541 427.18793457 136.3954541 425.86793457 135.7154541 424.50793457 C75.9854541 424.17793457 16.2554541 423.84793457 -45.2845459 423.50793457 C-45.2845459 426.14793457 -45.2845459 428.78793457 -45.2845459 431.50793457 C-46.3951416 434.08996582 -46.3951416 434.08996582 -47.96032715 436.32043457 C-48.53597412 437.16090332 -49.11162109 438.00137207 -49.70471191 438.86730957 C-50.64141724 440.17441895 -50.64141724 440.17441895 -51.5970459 441.50793457 C-52.22989502 442.42059082 -52.86274414 443.33324707 -53.51477051 444.27355957 C-54.80639987 446.13410352 -56.10529788 447.98962294 -57.41149902 449.83996582 C-59.13409695 452.29363502 -60.81938693 454.76713798 -62.4876709 457.25793457 C-63.44066143 458.6746917 -64.39377831 460.09136385 -65.3470459 461.50793457 C-65.77477295 462.14730957 -66.2025 462.78668457 -66.64318848 463.44543457 C-72.60650436 472.1689138 -72.60650436 472.1689138 -77.2845459 474.50793457 C-83.62715264 475.03648513 -86.04087023 474.40742659 -91.2845459 470.50793457 C-93.38342285 467.96520996 -93.38342285 467.96520996 -95.27282715 465.10559082 C-95.97987793 464.0492041 -96.68692871 462.99281738 -97.41540527 461.90441895 C-98.13534668 460.8042041 -98.85528809 459.70398926 -99.5970459 458.57043457 C-101.03003446 456.41508417 -102.46363001 454.26013721 -103.89782715 452.10559082 C-104.90055279 450.57991689 -105.90025278 449.05200897 -106.87308025 447.50709915 C-108.31595157 445.37143387 -108.31595157 445.37143387 -110.45746326 443.15314865 C-119.39769794 432.54496008 -118.53458224 421.63901083 -118.38562012 408.30163574 C-118.3912741 405.85951589 -118.40081915 403.41740243 -118.41394043 400.97531128 C-118.43531876 395.05773613 -118.41519515 389.14118661 -118.37512659 383.22379043 C-118.33011741 376.32350994 -118.33221333 369.42347503 -118.33577766 362.52307788 C-118.34045751 350.20928269 -118.30146221 337.89601392 -118.23815918 325.58239746 C-118.17683668 313.64868586 -118.14856789 301.71548543 -118.15612793 289.78161621 C-118.16561878 274.68210765 -118.14658564 259.58290611 -118.1034657 244.48345652 C-118.09056419 239.67902845 -118.08774084 234.87465458 -118.08828354 230.07021141 C-118.08836671 223.60291453 -118.0607016 217.13607689 -118.01472473 210.6689415 C-118.00173163 208.2970255 -117.99717362 205.92504595 -118.00169754 203.55309868 C-118.00640089 200.31327791 -117.98030174 197.07510902 -117.94638062 193.835495 C-117.95480574 192.89881916 -117.96323087 191.96214332 -117.97191131 190.99708337 C-117.84061253 183.58535591 -115.36421656 178.95344084 -110.47595215 173.48449707 C-109.66964355 172.81547363 -109.66964355 172.81547363 -108.8470459 172.13293457 C-108.04460449 171.44070801 -108.04460449 171.44070801 -107.22595215 170.73449707 C-100.86877843 166.71809356 -94.15238338 167.27203129 -86.9095459 167.38293457 C-85.23312012 167.39646973 -85.23312012 167.39646973 -83.52282715 167.41027832 C-80.77651128 167.43375111 -78.03064118 167.46658729 -75.2845459 167.50793457 C-75.29120773 166.27733307 -75.29786957 165.04673157 -75.30473328 163.77883911 C-75.36566653 152.15622761 -75.41057716 140.53364872 -75.43998241 128.91091347 C-75.45560837 122.93618718 -75.47679063 116.9615903 -75.51086426 110.98693848 C-75.54356705 105.21624868 -75.56142199 99.44568303 -75.56917763 93.67490768 C-75.57470154 91.4781944 -75.58548825 89.28148756 -75.60173607 87.08482742 C-75.62365533 83.99736331 -75.62650676 80.91040593 -75.62512207 77.82287598 C-75.6359079 76.92375488 -75.64669373 76.02463379 -75.6578064 75.0982666 C-75.61674951 66.58460138 -74.0972054 58.53879662 -68.1595459 52.13293457 C-67.45571777 51.3414502 -66.75188965 50.54996582 -66.0267334 49.73449707 C-58.73347791 43.81262296 -51.90843035 42.94179162 -42.7220459 43.25793457 C-41.71335449 43.27598145 -40.70466309 43.29402832 -39.66540527 43.31262207 C-37.20408985 43.35928208 -34.74485019 43.42471887 -32.2845459 43.50793457 C-32.3159668 42.6322583 -32.3159668 42.6322583 -32.34802246 41.7388916 C-33.10257712 17.5501617 -33.10257712 17.5501617 -24.6595459 8.13293457 C-18.07706089 1.37798271 -9.01782663 -0.08923023 0 0 Z M-56.2845459 64.50793457 C-59.0261332 69.0456215 -58.59431226 74.13919479 -58.60681152 79.28356934 C-58.61674133 80.26298492 -58.62667114 81.24240051 -58.63690186 82.25149536 C-58.66606082 85.48413925 -58.67973121 88.71658717 -58.6907959 91.94934082 C-58.70230143 94.19705714 -58.71381687 96.44477341 -58.7253418 98.69248962 C-58.74633472 103.40075595 -58.75803916 108.10895421 -58.76501465 112.81726074 C-58.77600891 118.85595844 -58.82412603 124.89375981 -58.88095856 130.93217564 C-58.91815755 135.57238932 -58.92861934 140.21238529 -58.9316864 144.85273552 C-58.93774784 147.07955795 -58.95383337 149.30637617 -58.98005676 151.53305244 C-59.01408615 154.64330158 -59.01044454 157.75133575 -58.99743652 160.86169434 C-59.01586609 161.7838826 -59.03429565 162.70607086 -59.05328369 163.65620422 C-59.02135626 166.08725042 -58.94230383 168.167005 -58.2845459 170.50793457 C-55.50595432 173.04719528 -55.50595432 173.04719528 -52.2845459 174.50793457 C-46.72934503 180.52606884 -45.98814087 185.66611449 -46.006073 193.53718567 C-45.9973844 194.90341679 -45.9973844 194.90341679 -45.98852026 196.29724854 C-45.971513 199.34969081 -45.96864311 202.40198195 -45.96569824 205.45446777 C-45.95640058 207.64237336 -45.94623215 209.8302754 -45.93525696 212.01817322 C-45.90792473 217.95982886 -45.89279795 223.90146075 -45.87982893 229.84316278 C-45.86421253 236.05185694 -45.83741755 242.26050249 -45.8117981 248.46916199 C-45.76764608 259.55844648 -45.73197946 270.64773659 -45.70078571 281.73706456 C-45.67238127 291.80271507 -45.63936832 301.86833898 -45.60192871 311.93395996 C-45.5994472 312.60250565 -45.59696569 313.27105133 -45.59440899 313.95985597 C-45.57278655 319.77540064 -45.55084747 325.5909441 -45.52887726 331.40648746 C-45.43471401 356.44027307 -45.36134308 381.47407572 -45.2845459 406.50793457 C14.1154541 406.50793457 73.5154541 406.50793457 134.7154541 406.50793457 C134.7154541 393.30793457 134.7154541 380.10793457 134.7154541 366.50793457 C129.73437266 364.01739385 125.16933653 361.8008263 120.03186035 359.84387207 C119.42227982 359.61024963 118.81269928 359.3766272 118.18464661 359.13592529 C116.88650756 358.63863586 115.58774224 358.14297851 114.28839111 357.64886475 C112.24316842 356.86968203 110.20087566 356.08324581 108.15930176 355.29455566 C102.74852505 353.20492386 97.33786794 351.11545921 91.90930176 349.0723877 C88.4639244 347.77379204 85.02684814 346.45507915 81.5904541 345.13293457 C80.56121826 344.75314453 79.53198242 344.37335449 78.47155762 343.98205566 C72.65124877 341.72043307 69.05777253 339.87506002 65.7154541 334.50793457 C64.24553883 329.87204794 64.30910003 325.7269968 65.8404541 321.13293457 C70.07128269 315.20977455 75.62715721 313.08064794 82.1920166 310.55871582 C83.13359619 310.18881531 84.07517578 309.81891479 85.04528809 309.43780518 C88.14056784 308.22389448 91.24046358 307.02225817 94.3404541 305.82043457 C96.50535954 304.97360305 98.66990611 304.12585358 100.83410645 303.27722168 C105.28130177 301.53441189 109.73012978 299.79587344 114.18029785 298.06066895 C123.03525159 294.60547513 131.87395516 291.10940972 140.71173096 287.61056519 C143.21452871 286.6202606 145.71803041 285.63176097 148.22180176 284.6439209 C158.61968425 280.53926862 169.00263719 276.39776768 179.38098145 272.24401855 C180.77775993 271.6851225 182.17454436 271.12624127 183.57133484 270.56737518 C186.95277623 269.21439897 190.33413777 267.86122332 193.7154541 266.50793457 C193.78553179 241.07362387 193.83843624 215.63932764 193.87089062 190.20493984 C193.8863602 178.39534211 193.90745154 166.58580435 193.94177246 154.77624512 C193.97167193 144.48316742 193.99102844 134.19013316 193.99771959 123.89701325 C194.00163089 118.44676941 194.01082507 112.99664986 194.03264427 107.54644585 C194.05301797 102.41570806 194.05928607 97.28514566 194.05477715 92.15437126 C194.05560195 90.27222236 194.06156229 88.39006754 194.07307053 86.50795364 C194.08802848 83.93529922 194.08439574 81.36330431 194.07621765 78.79063416 C194.08495618 78.04839818 194.0936947 77.3061622 194.10269803 76.54143423 C194.05222193 70.65411213 192.94067419 66.17747029 189.1206274 61.59466457 C185.24762508 59.84472505 181.4330956 60.09254307 177.23268127 60.12025452 C176.26090594 60.11486898 175.28913061 60.10948344 174.28790754 60.10393471 C171.02282455 60.08959625 167.75814362 60.09677345 164.49304199 60.10388184 C162.15576348 60.09818136 159.81848774 60.09121836 157.48121643 60.08308411 C151.1259084 60.0651021 144.77073805 60.06633057 138.41541219 60.07202649 C132.44435924 60.07550095 126.47332757 60.06756233 120.50227921 60.06066584 C107.95408007 60.04693514 95.40594325 60.05238245 82.85774552 60.06385105 C71.37676466 60.0737838 59.89594495 60.06084314 48.41498894 60.03691686 C36.62766202 60.01253709 24.8404102 60.00291523 13.05305856 60.00956959 C6.4348128 60.01294592 -0.1832998 60.01047914 -6.80152702 59.99331856 C-13.02400411 59.97788913 -19.24617274 59.98176069 -25.46863747 60.0006237 C-27.75475886 60.00432065 -30.0409029 60.00116915 -32.32700348 59.99073792 C-35.44329126 59.97760228 -38.55854669 59.98901013 -41.67478943 60.00672913 C-42.58354244 59.99712412 -43.49229545 59.98751911 -44.42858642 59.97762305 C-49.64915178 60.03887099 -52.52628394 60.51774053 -56.2845459 64.50793457 Z M-100.2845459 223.50793457 C-100.2845459 288.18793457 -100.2845459 352.86793457 -100.2845459 419.50793457 C-96.9845459 419.50793457 -93.6845459 419.50793457 -90.2845459 419.50793457 C-90.2845459 354.82793457 -90.2845459 290.14793457 -90.2845459 223.50793457 C-93.5845459 223.50793457 -96.8845459 223.50793457 -100.2845459 223.50793457 Z M-73.2845459 223.50793457 C-73.2845459 288.18793457 -73.2845459 352.86793457 -73.2845459 419.50793457 C-69.6545459 419.50793457 -66.0245459 419.50793457 -62.2845459 419.50793457 C-62.2845459 354.82793457 -62.2845459 290.14793457 -62.2845459 223.50793457 C-65.9145459 223.50793457 -69.5445459 223.50793457 -73.2845459 223.50793457 Z " fill="#5407A5" transform="translate(117.2845458984375,18.4920654296875)"/>
<path d="M0 0 C0.75085876 0.28313049 1.50171753 0.56626099 2.27532959 0.85797119 C4.66817123 1.76331031 7.04932373 2.69517904 9.4296875 3.6328125 C10.32053543 3.98166 11.21138336 4.33050751 12.12922668 4.68992615 C15.04539452 5.83264564 17.96022434 6.97873458 20.875 8.125 C22.93590301 8.93364177 24.99685763 9.74215201 27.05786133 10.55053711 C45.00076621 17.59220911 62.92721824 24.67550499 80.84733582 31.77493286 C86.56140876 34.03759432 92.27859724 36.29222132 97.99778748 38.54191589 C101.97785813 40.10758115 105.95715861 41.67519885 109.93643188 43.2428894 C111.83495909 43.99020924 113.73385744 44.73658696 115.63314819 45.48196411 C118.26292635 46.514142 120.8913568 47.54968431 123.51953125 48.5859375 C124.29249542 48.88828812 125.06545959 49.19063873 125.86184692 49.50215149 C130.02060467 51.14603349 134.0283421 52.93114193 138 55 C136.47764991 58.04470018 134.21602081 58.25566411 131.06640625 59.44921875 C130.4278923 59.69401978 129.78937836 59.9388208 129.1315155 60.19104004 C127.7089428 60.73592345 126.28519047 61.27773388 124.86047363 61.81698608 C120.78230834 63.36186875 116.71401454 64.93242168 112.64453125 66.5 C111.74048553 66.84765915 110.83643982 67.1953183 109.90499878 67.55351257 C98.72713067 71.86050914 87.59733187 76.28858782 76.465271 80.71231079 C72.73985737 82.19152724 69.01294909 83.66691552 65.28564453 85.14135742 C54.2882192 89.4941383 43.29868581 93.86308183 32.34976196 98.33699036 C27.92580812 100.14340638 23.49631531 101.93599622 19.06628418 103.72744751 C17.0000833 104.56782157 14.93676763 105.41532888 12.87658691 106.27035522 C10.03792472 107.44812602 7.19041132 108.6014075 4.33984375 109.75 C3.52057907 110.0977095 2.70131439 110.44541901 1.85722351 110.80366516 C-6.75638694 114.21555817 -13.63971183 112.56361782 -21.94140625 109.0703125 C-23.05665932 108.61785912 -23.05665932 108.61785912 -24.19444275 108.15626526 C-25.80646453 107.50078255 -27.41639988 106.84014972 -29.02441406 106.17489624 C-31.63330489 105.09571108 -34.24741064 104.03016499 -36.86328125 102.96801758 C-39.66457435 101.83050894 -42.46553305 100.69224934 -45.2649231 99.55006409 C-54.98616638 95.58514813 -64.7463719 91.72081914 -74.51202393 87.86685181 C-78.51259119 86.28783105 -82.51197519 84.70582451 -86.51141357 83.12394714 C-89.56819063 81.91498958 -92.6251453 80.70648204 -95.68212891 79.49804688 C-105.61446889 75.57133039 -115.5449739 71.63997669 -125.47558594 67.70889282 C-128.62819728 66.46097418 -131.78088631 65.21325201 -134.93359375 63.96557617 C-136.85547026 63.20491918 -138.77734534 62.44425857 -140.69921875 61.68359375 C-141.57088181 61.33866882 -142.44254486 60.9937439 -143.34062195 60.6383667 C-147.2297764 59.09891327 -151.11800215 57.55744232 -155 56 C-152.95770048 53.95770048 -151.76513568 53.36396619 -149.12841797 52.33032227 C-148.32059372 52.01064987 -147.51276947 51.69097748 -146.6804657 51.36161804 C-145.34976799 50.8442382 -145.34976799 50.8442382 -143.9921875 50.31640625 C-143.06062332 49.94937088 -142.12905914 49.58233551 -141.16926575 49.20417786 C-138.07304094 47.98548406 -134.97401476 46.77407968 -131.875 45.5625 C-129.7000605 44.70774392 -127.52534031 43.85242959 -125.35083008 42.99658203 C-120.8224617 41.21479441 -116.29314976 39.43543615 -111.76318359 37.65771484 C-102.38625362 33.9756848 -93.02133142 30.2634121 -83.65621948 26.55145264 C-78.71671452 24.5940115 -73.77633187 22.63878877 -68.8359375 20.68359375 C-67.38074959 20.10765472 -67.38074959 20.10765472 -65.89616394 19.52008057 C-53.02760335 14.42732165 -40.15693237 9.33989751 -27.28588867 4.25341797 C-26.42575165 3.91346298 -25.56561462 3.573508 -24.67941284 3.22325134 C-23.0853932 2.59324811 -21.49134052 1.96332844 -19.89724731 1.33351135 C-19.18970306 1.05386032 -18.48215881 0.77420929 -17.75317383 0.48608398 C-17.09257965 0.23325653 -16.43198547 -0.01957092 -15.75137329 -0.28005981 C-13.84018298 -1.02278577 -13.84018298 -1.02278577 -11.54956055 -2.39038086 C-7.33198568 -3.39883479 -3.92598562 -1.56735123 0 0 Z " fill="#5B9DFE" transform="translate(355,291)"/>
<path d="M0 0 C0.95558998 -0.00467997 1.91117996 -0.00935994 2.89572722 -0.01418173 C6.10010505 -0.0261547 9.30405704 -0.0166653 12.50843811 -0.00723267 C14.80483246 -0.01129736 17.10122485 -0.01663866 19.39761353 -0.02316284 C25.63723939 -0.03685506 31.87671666 -0.03152964 38.11634517 -0.02202559 C44.64251914 -0.01443799 51.16868027 -0.02147218 57.69485474 -0.02618408 C69.35860631 -0.03199456 81.02228999 -0.02266202 92.68603087 -0.00740607 C103.25805172 0.00599397 113.82997374 0.00367168 124.4019928 -0.01016235 C136.68157072 -0.02622331 148.96107825 -0.0321893 161.24066645 -0.02332556 C167.7398542 -0.0186465 174.23897389 -0.0180306 180.73815727 -0.02793503 C186.84898726 -0.03659678 192.9596305 -0.03059701 199.07044029 -0.01325226 C201.31421346 -0.00928305 203.55800232 -0.01042886 205.80176926 -0.01704025 C208.86276914 -0.02522852 211.92316926 -0.01496653 214.98413086 0 C216.31852224 -0.01003825 216.31852224 -0.01003825 217.67987102 -0.02027929 C222.68744554 0.02726506 226.31932357 0.42366996 230.55555725 3.38095093 C235.01623337 8.32049713 235.12052508 12.51207886 235.03657532 18.83416748 C235.03999302 19.77851107 235.04341072 20.72285466 235.04693198 21.69581473 C235.05351369 24.85598141 235.03152949 28.01529626 235.00965881 31.17538452 C235.0085304 33.44225037 235.00916407 35.70911767 235.01142883 37.97598267 C235.01257714 44.1284517 234.98904849 50.28060921 234.961133 56.43300581 C234.93613907 62.86319877 234.93377892 69.29339877 234.92903137 75.72363281 C234.91800888 86.5158797 234.89301893 97.30799876 234.85731506 108.10018921 C234.82058294 119.21476674 234.79227708 130.32931321 234.77528381 141.44393921 C234.77423292 142.12937185 234.77318203 142.81480449 234.77209929 143.52100782 C234.76687903 146.95972021 234.76182422 150.39843281 234.75685167 153.83714557 C234.71540407 182.35182603 234.64467036 210.86638235 234.55555725 239.38095093 C233.63154114 239.22155029 233.63154114 239.22155029 232.68885803 239.05892944 C226.11050894 238.1308922 221.54332511 238.84191289 215.43055725 241.31845093 C214.66485413 241.60913452 213.899151 241.89981812 213.11024475 242.1993103 C211.25149732 242.90795776 209.4023835 243.64179193 207.55555725 244.38095093 C207.55409069 243.38426927 207.55262413 242.3875876 207.55111313 241.36070347 C207.51450177 217.09796221 207.45503063 192.83535881 207.37165451 168.57273197 C207.33186228 156.83945044 207.29947067 145.106236 207.28456116 133.37289429 C207.27154565 123.14491049 207.2445834 112.9170743 207.20094419 102.68917364 C207.17832729 97.27464768 207.16264672 91.86030379 207.1636734 86.44572639 C207.16441986 81.34604921 207.1464742 76.24677456 207.11438942 71.14720154 C207.10589293 69.27882155 207.10413878 67.4103964 207.10975456 65.54200554 C207.14078072 53.62987671 206.66168129 44.0494369 198.2625885 34.88485718 C191.54951059 28.97058945 183.91518212 28.23367445 175.2855835 28.22273254 C174.4564338 28.21779457 173.62728409 28.21285659 172.77300864 28.20776898 C169.99699493 28.19242105 167.2210043 28.18404068 164.44496155 28.17562866 C162.4540995 28.16604801 160.46323948 28.15603782 158.47238159 28.14562988 C153.06790432 28.11859502 147.66341834 28.09757774 142.25891089 28.0776279 C136.61077266 28.05575963 130.96266126 28.02837504 125.31454468 28.00157166 C114.61910375 27.95165617 103.92364792 27.90671307 93.22817785 27.86354929 C81.05173412 27.81416716 68.87531731 27.75925264 56.69889963 27.7038697 C31.65114396 27.59006721 6.60336246 27.48322437 -18.44444275 27.38095093 C-18.55297198 24.50492638 -18.63199425 21.63304261 -18.69444275 18.75595093 C-18.72795837 17.94770874 -18.761474 17.13946655 -18.79600525 16.30673218 C-18.88508991 10.82802532 -18.21290479 7.649311 -14.44444275 3.38095093 C-10.04011423 -0.3941878 -5.52169029 -0.04143421 0 0 Z " fill="#7A8DFE" transform="translate(119.44444274902344,34.619049072265625)"/>
<path d="M0 0 C3.71195084 0.64010843 7.01607388 1.67329539 10.51782227 3.05371094 C12.1409005 3.69007477 12.1409005 3.69007477 13.79676819 4.33929443 C15.53898903 5.02985931 15.53898903 5.02985931 17.31640625 5.734375 C19.12757179 6.44693451 19.12757179 6.44693451 20.97532654 7.17388916 C23.53249029 8.18012763 26.0885647 9.18906699 28.64379883 10.20019531 C31.88410319 11.48238895 35.12618252 12.76001209 38.36900425 14.03582382 C41.49794111 15.2670628 44.62593704 16.50067959 47.75390625 17.734375 C48.90121719 18.18665466 50.04852814 18.63893433 51.23060608 19.10491943 C52.33472336 19.54177063 53.43884064 19.97862183 54.57641602 20.42871094 C55.65037628 20.85019409 56.72433655 21.27167725 57.83084106 21.70593262 C59.94295226 22.56837412 62.03561268 23.4800747 64.10543823 24.4395752 C72.78216408 28.4121509 79.89623684 29.57530639 89.07470703 26.50634766 C90.81002181 25.82808327 92.53759561 25.12975363 94.2578125 24.4140625 C95.19685928 24.04106018 96.13590607 23.66805786 97.10340881 23.28375244 C100.11794322 22.08160494 103.12118239 20.85364782 106.125 19.625 C108.19370237 18.79525303 110.26312352 17.96729592 112.33325195 17.14111328 C117.341218 15.13792686 122.3409167 13.1151446 127.33709717 11.08276367 C132.22199706 9.09651315 137.11276679 7.12490018 142.00537109 5.15771484 C144.06716913 4.32660491 146.12628653 3.48880101 148.18212891 2.64306641 C149.06433105 2.28390137 149.9465332 1.92473633 150.85546875 1.5546875 C151.59434326 1.25030762 152.33321777 0.94592773 153.09448242 0.63232422 C155 0 155 0 158 0 C158.12676673 6.33523191 158.21433632 12.67013694 158.2746582 19.00634766 C158.29980397 21.16174542 158.33392524 23.31705791 158.37719727 25.47216797 C158.43784508 28.57020092 158.46620912 31.66710681 158.48828125 34.765625 C158.51408768 35.72929993 158.5398941 36.69297485 158.56648254 37.68585205 C158.56927769 44.35172204 158.56927769 44.35172204 155.77978516 47.52832031 C153.18908659 48.89989338 150.8436162 49.95518479 148.03515625 50.78125 C147.08068604 51.06403809 146.12621582 51.34682617 145.14282227 51.63818359 C143.61806274 52.06478271 143.61806274 52.06478271 142.0625 52.5 C141.00796631 52.80115723 139.95343262 53.10231445 138.86694336 53.41259766 C122.62373546 57.91712865 105.83020284 61.14380997 88.93359375 61.16796875 C87.67785301 61.17296135 87.67785301 61.17296135 86.39674377 61.17805481 C84.63453718 61.18308386 82.87232119 61.18546439 81.11010742 61.18530273 C78.4684196 61.18747458 75.82716032 61.20563333 73.18554688 61.22460938 C58.13511374 61.27683995 43.95743999 59.81818397 29.3125 56.125 C28.24104736 55.85961426 27.16959473 55.59422852 26.06567383 55.32080078 C23.03952182 54.5627112 20.01871565 53.78712404 17 53 C16.23268555 52.80083984 15.46537109 52.60167969 14.67480469 52.39648438 C3.17071519 49.34720764 3.17071519 49.34720764 0 45 C-0.5659259 41.58788504 -0.46454065 38.21586334 -0.390625 34.765625 C-0.38496521 33.77246277 -0.37930542 32.77930054 -0.37347412 31.75604248 C-0.35110026 28.58686941 -0.30090106 25.4188308 -0.25 22.25 C-0.22993635 20.10027676 -0.21168534 17.95053577 -0.1953125 15.80078125 C-0.15123239 10.53346771 -0.08431033 5.26681491 0 0 Z " fill="#5C9CFE" transform="translate(268,391)"/>
<path d="M0 0 C0.68663223 -0.00311998 1.37326447 -0.00623996 2.08070374 -0.00945449 C4.38071282 -0.01742965 6.68045772 -0.01111282 8.98046875 -0.00482178 C10.62972162 -0.00753186 12.27897329 -0.01109288 13.92822266 -0.01544189 C18.4074805 -0.02456616 22.88664629 -0.02102148 27.36590576 -0.01468372 C32.05123138 -0.00962394 36.73654907 -0.01431512 41.421875 -0.01745605 C49.29037899 -0.02109576 57.15884545 -0.01629648 65.02734375 -0.0067749 C74.12733467 0.00410965 83.22723598 0.00058408 92.32722473 -0.01042771 C100.13707751 -0.01950046 107.9469033 -0.02078593 115.75675964 -0.01555037 C120.42265288 -0.01243061 125.08850399 -0.01202153 129.75439453 -0.01862335 C134.14072876 -0.02439599 138.52694732 -0.02040141 142.91326904 -0.00883484 C144.52414762 -0.00618782 146.13503592 -0.00695407 147.74591064 -0.01136017 C149.94271818 -0.01681543 152.13915374 -0.00998194 154.3359375 0 C155.56594482 0.00075405 156.79595215 0.0015081 158.06323242 0.002285 C161.04273287 0.24381517 162.69763696 0.62761352 165.16796875 2.25396729 C167.23263377 4.90853659 167.16481812 6.34218488 167.04296875 9.75396729 C166.05780758 13.69461197 165.35367412 14.82321961 162.16796875 17.25396729 C159.03479099 17.76012516 159.03479099 17.76012516 155.26673889 17.76863098 C154.22559823 17.77904927 154.22559823 17.77904927 153.16342443 17.78967804 C150.8378707 17.807973 148.51333426 17.7976776 146.18774414 17.78741455 C144.5204034 17.79447183 142.85306906 17.80321604 141.18574524 17.81352234 C136.65676047 17.83604818 132.12812463 17.83306913 127.59910512 17.82420087 C123.81916724 17.8190951 120.03929517 17.82638022 116.25936407 17.83367294 C107.34252874 17.85068224 98.42586451 17.84709591 89.5090332 17.8303833 C80.30780676 17.81346073 71.10705467 17.82929598 61.90588003 17.86160618 C54.00766171 17.88829101 46.10959114 17.89558109 38.21133226 17.8870911 C33.49333606 17.88215865 28.77562532 17.88439459 24.05766487 17.90487862 C19.621063 17.92321841 15.18514407 17.91729824 10.74857903 17.89267921 C9.12038388 17.88766585 7.49213685 17.89117478 5.86398315 17.90382767 C3.6405959 17.91973927 1.41946287 17.90482974 -0.80381775 17.88215637 C-2.66956908 17.88127691 -2.66956908 17.88127691 -4.57301235 17.88037968 C-8.74104909 17.07924598 -10.23835054 15.54829246 -12.83203125 12.25396729 C-13.38551763 8.37956261 -13.13171688 5.47352717 -10.83203125 2.25396729 C-7.29937287 -0.08563373 -4.16477132 0.0025532 0 0 Z " fill="#5307A5" transform="translate(107.83203125,242.74603271484375)"/>
<path d="M0 0 C0.69565376 -0.00638882 1.39130752 -0.01277764 2.1080417 -0.01936007 C4.43308629 -0.03458972 6.75642111 -0.01416495 9.08140564 0.00622559 C10.75051436 0.00272377 12.41961975 -0.00293549 14.0887146 -0.0105896 C18.61769 -0.02483762 23.14605828 -0.00777675 27.67497563 0.01569557 C32.41367574 0.03579912 37.15235051 0.02992533 41.89108276 0.02758789 C49.84785479 0.02764146 57.80438935 0.04739969 65.76109314 0.07946777 C74.9628352 0.11637325 84.16426631 0.1251416 93.36607271 0.11817026 C102.21610089 0.11186765 111.06602233 0.12261425 119.91602898 0.14213562 C123.68349667 0.15031466 127.45090986 0.15301825 131.2183857 0.15144348 C135.65324094 0.15056528 140.08780013 0.1647632 144.52257729 0.19067001 C146.1511822 0.19783887 147.77981859 0.19991198 149.40843582 0.19655228 C151.62946513 0.19284407 153.84962728 0.20756075 156.07055664 0.22705078 C157.93574243 0.23264385 157.93574243 0.23264385 159.83860874 0.23834991 C163.20232752 0.64964942 164.58363353 1.26804466 166.9717865 3.62145996 C168.0359966 6.27089969 168.21513628 8.78422275 167.9717865 11.62145996 C165.89781081 15.10277629 164.82719804 16.33632278 160.9717865 17.62145996 C158.75116064 17.72204277 156.5275918 17.7608589 154.30470276 17.76863098 C153.62371407 17.77230767 152.94272538 17.77598436 152.24110067 17.77977246 C149.95421881 17.79080488 147.66738239 17.79465234 145.38047791 17.79846191 C143.74284725 17.80472678 142.10521801 17.8113736 140.46759033 17.81837463 C136.01509987 17.83577924 131.56262013 17.84633442 127.11010408 17.85458016 C124.32921824 17.85973034 121.54833573 17.86580599 118.76745224 17.87209129 C110.069104 17.89113991 101.37076425 17.90537304 92.67239916 17.91370326 C82.6266899 17.92348245 72.58120057 17.94982106 62.53556883 17.99020416 C54.77328446 18.02033944 47.01106323 18.03516958 39.24872148 18.03848428 C34.61120178 18.04083725 29.97391715 18.04983006 25.33646011 18.07494545 C20.97468712 18.09818675 16.61330464 18.10247543 12.25148582 18.09218407 C10.65068833 18.09168767 9.04987186 18.09803867 7.44913292 18.11174011 C5.26323124 18.12940354 3.07873963 18.12238204 0.89283752 18.10920715 C-0.33017248 18.11159551 -1.55318249 18.11398386 -2.8132534 18.11644459 C-6.64509555 17.526483 -8.29121945 16.31294076 -11.0282135 13.62145996 C-12.47252205 10.73284287 -12.40509856 8.82498295 -12.0282135 5.62145996 C-8.33147263 0.90269583 -5.91660777 -0.00338923 0 0 Z " fill="#5406A4" transform="translate(107.02821350097656,182.3785400390625)"/>
<path d="M0 0 C0.67690514 -0.00297112 1.35381027 -0.00594224 2.05122769 -0.0090034 C4.32429487 -0.01768989 6.59730938 -0.0191986 8.87039185 -0.02069092 C10.49817009 -0.02531909 12.12594725 -0.03034374 13.75372314 -0.03573608 C18.1793595 -0.04886122 22.60498068 -0.05530513 27.03063345 -0.05974674 C29.79476851 -0.06267696 32.55889941 -0.06678164 35.32303238 -0.07125092 C43.96905749 -0.08492543 52.61507311 -0.09459261 61.26110828 -0.09845281 C71.2462173 -0.10293522 81.23118955 -0.12049179 91.21625698 -0.1494534 C98.93183355 -0.17105673 106.6473716 -0.18115635 114.3629781 -0.18249393 C118.97250634 -0.18354282 123.581906 -0.18946857 128.19140244 -0.20731354 C132.5268642 -0.22377118 136.86210041 -0.22596101 141.19758224 -0.21717453 C142.78869734 -0.21640295 144.37982445 -0.22076285 145.97090912 -0.23063278 C148.14347328 -0.24331938 150.31523454 -0.23749414 152.48779297 -0.22705078 C153.70342863 -0.22851734 154.91906429 -0.2299839 156.1715374 -0.2314949 C159.7076551 0.17959338 161.55108557 1.0019225 164.37088013 3.14044189 C166.44998202 6.25909474 166.65247387 6.67783711 166.24588013 10.14044189 C166.181427 10.82106689 166.11697388 11.50169189 166.05056763 12.20294189 C165.08402633 14.95814006 163.88294344 15.66448948 161.37088013 17.14044189 C158.23770237 17.52355194 158.23770237 17.52355194 154.46965027 17.53485107 C153.7755565 17.54094218 153.08146273 17.54703328 152.36633581 17.55330896 C150.04094265 17.5699558 147.71609605 17.56516096 145.39065552 17.56036377 C143.72331676 17.56770313 142.05598308 17.57628897 140.38865662 17.58602905 C135.85973167 17.60826734 131.33098854 17.6111746 126.8020165 17.60928154 C123.02208634 17.60916195 119.24219486 17.6177213 115.46227545 17.62605906 C106.54547231 17.64530127 97.62876279 17.64817389 88.71194458 17.64141846 C79.51073286 17.63477591 70.30992185 17.65764867 61.10879141 17.69473219 C53.21058528 17.7254104 45.31250817 17.73679129 37.41424364 17.73289537 C32.69623178 17.73082601 27.97853174 17.7363359 23.26057625 17.76078796 C18.82399776 17.78302178 14.38807165 17.78120566 9.9514904 17.76086044 C8.32328664 17.75744445 6.69503926 17.7625649 5.06689453 17.77684402 C2.84353089 17.79499784 0.62238963 17.78232041 -1.60090637 17.76190186 C-2.84474059 17.76261436 -4.08857481 17.76332687 -5.37010098 17.76406097 C-9.53856941 16.9664171 -11.02822665 15.42728855 -13.62911987 12.14044189 C-14.36719028 8.20406639 -13.99048695 6.70118391 -11.81661987 3.32794189 C-8.1804447 -0.30823328 -4.92515419 0.01205934 0 0 Z " fill="#5307A4" transform="translate(108.62911987304688,121.85955810546875)"/>
<path d="M0 0 C1.13526123 -0.00478363 2.27052246 -0.00956726 3.44018555 -0.01449585 C5.83741646 -0.01789422 8.23469375 -0.00869641 10.63183594 0.01220703 C14.29987994 0.03897042 17.96486361 0.01245382 21.6328125 -0.01953125 C23.96354842 -0.01622714 26.29428243 -0.0098209 28.625 0 C29.72094482 -0.01012115 30.81688965 -0.02024231 31.94604492 -0.03067017 C39.52778589 0.08595939 39.52778589 0.08595939 43.5078125 3.01806641 C45.73731935 6.28692399 46.04006373 7.78372259 45.3125 11.6640625 C43.51256226 14.36396912 42.228727 16.205949 39.3125 17.6640625 C37.73606325 17.77427606 36.15513445 17.8231581 34.57495117 17.84106445 C33.59020309 17.85389969 32.60545502 17.86673492 31.59086609 17.87995911 C30.52318497 17.88734604 29.45550385 17.89473297 28.35546875 17.90234375 C27.26035477 17.9104155 26.16524078 17.91848724 25.03694153 17.92680359 C22.7159687 17.94065154 20.39497545 17.9513705 18.07397461 17.95922852 C14.52483517 17.97644205 10.97662684 18.0203231 7.42773438 18.06445312 C5.17448603 18.07457975 2.92122975 18.08309594 0.66796875 18.08984375 C-0.92444389 18.11610588 -0.92444389 18.11610588 -2.54902649 18.14289856 C-9.93096461 18.12117631 -9.93096461 18.12117631 -13.8347168 15.76245117 C-16.04095432 13.26375417 -16.62078831 12.16440021 -17.0625 8.8515625 C-16.6875 5.6640625 -16.6875 5.6640625 -14.89453125 3.00634766 C-10.10693101 -0.49032079 -5.78931186 -0.05346485 0 0 Z " fill="#5306A5" transform="translate(111.6875,363.3359375)"/>
<path d="M0 0 C1.35677101 -0.00956978 1.35677101 -0.00956978 2.74095154 -0.01933289 C3.71081497 -0.02044571 4.68067841 -0.02155853 5.67993164 -0.02270508 C6.68343155 -0.02603348 7.68693146 -0.02936188 8.72084045 -0.03279114 C10.84155825 -0.03785001 12.96228399 -0.04019978 15.08300781 -0.04003906 C18.32443362 -0.04222577 21.56551915 -0.06039323 24.80688477 -0.0793457 C26.86873256 -0.0822798 28.93058197 -0.08426449 30.99243164 -0.08520508 C31.96027084 -0.09239059 32.92811005 -0.09957611 33.92527771 -0.10697937 C44.10564744 -0.07247194 44.10564744 -0.07247194 48.21508789 3.89526367 C49.81370001 6.92421296 49.88629925 8.75928419 49.40258789 12.14526367 C48.12915039 14.79516602 48.12915039 14.79516602 45.40258789 17.14526367 C41.39171015 17.92161144 37.41457283 17.84524849 33.34008789 17.80932617 C31.56492798 17.81650162 31.56492798 17.81650162 29.75390625 17.82382202 C27.2523465 17.82722379 24.75074247 17.81800225 22.24926758 17.79711914 C18.41655508 17.77036118 14.58677161 17.79686148 10.75415039 17.82885742 C8.32445641 17.82555338 5.89476426 17.81914726 3.46508789 17.80932617 C1.74310181 17.8245079 1.74310181 17.8245079 -0.01367188 17.83999634 C-7.9289933 17.72317742 -7.9289933 17.72317742 -11.32006836 14.79125977 C-12.89174571 11.53555658 -13.19294512 9.71846174 -12.59741211 6.14526367 C-9.72361959 1.52666855 -9.72361959 1.52666855 -6.74412537 0.5176239 C-4.45610677 0.12075342 -2.32218591 0.01115918 0 0 Z " fill="#5406A5" transform="translate(107.597412109375,302.854736328125)"/>
<path d="M0 0 C1.92005859 -0.0309375 1.92005859 -0.0309375 3.87890625 -0.0625 C5.72935547 -0.07023438 5.72935547 -0.07023438 7.6171875 -0.078125 C8.74495605 -0.0874707 9.87272461 -0.09681641 11.03466797 -0.10644531 C14.48725164 0.29178286 16.35432854 1.18784226 19.125 3.25 C22.25904247 9.51808495 20.125 17.24206799 20.125 24.25 C6.925 24.25 -6.275 24.25 -19.875 24.25 C-19.875 17.65 -19.875 11.05 -19.875 4.25 C-14.28084362 -1.34415638 -7.49242595 0.0299997 0 0 Z " fill="#BE6AFE" transform="translate(35.875,201.75)"/>
<path d="M0 0 C7.92 0 15.84 0 24 0 C22.17240276 4.5689931 20.13671002 8.22265107 17.5 12.3125 C17.09652344 12.95767578 16.69304688 13.60285156 16.27734375 14.26757812 C15.24154258 15.88281262 14.12659452 17.44672883 13 19 C12.34 19 11.68 19 11 19 C9.61750489 17.13319132 8.31796366 15.20450208 7.0625 13.25 C4.2925124 8.92450451 4.2925124 8.92450451 1.24609375 4.796875 C0 3 0 3 0 0 Z " fill="#B966FA" transform="translate(24,454)"/>
</svg>
